<mxfile host="app.diagrams.net" agent="Mozilla/5.0 (X11; Linux x86_64; rv:136.0) Gecko/20100101 Firefox/136.0" version="26.2.1">
  <diagram name="Page-1" id="2d9Kb3E2bQ9XCjUfX3pD">
    <mxGraphModel dx="1016" dy="1920" grid="1" gridSize="10" guides="1" tooltips="1" connect="1" arrows="1" fold="1" page="1" pageScale="1" pageWidth="850" pageHeight="1100" math="0" shadow="0">
      <root>
        <mxCell id="0" />
        <mxCell id="1" parent="0" />
        <mxCell id="sIYAJ0rAMIiGirNf-sVY-8" value="" style="group" vertex="1" connectable="0" parent="1">
          <mxGeometry x="320" y="40" width="180" height="80" as="geometry" />
        </mxCell>
        <mxCell id="sIYAJ0rAMIiGirNf-sVY-1" value="" style="rounded=0;whiteSpace=wrap;html=1;fillColor=#fff2cc;strokeColor=#d6b656;" vertex="1" parent="sIYAJ0rAMIiGirNf-sVY-8">
          <mxGeometry width="180" height="80" as="geometry" />
        </mxCell>
        <mxCell id="sIYAJ0rAMIiGirNf-sVY-6" value="Enviormental Variables" style="rounded=0;whiteSpace=wrap;html=1;" vertex="1" parent="sIYAJ0rAMIiGirNf-sVY-8">
          <mxGeometry x="30" y="10" width="120" height="60" as="geometry" />
        </mxCell>
        <mxCell id="sIYAJ0rAMIiGirNf-sVY-14" value="" style="group" vertex="1" connectable="0" parent="1">
          <mxGeometry x="170" y="170" width="490" height="150" as="geometry" />
        </mxCell>
        <mxCell id="sIYAJ0rAMIiGirNf-sVY-2" value="" style="rounded=0;whiteSpace=wrap;html=1;fillColor=#ffcccc;strokeColor=#36393d;" vertex="1" parent="sIYAJ0rAMIiGirNf-sVY-14">
          <mxGeometry x="40" width="400" height="150" as="geometry" />
        </mxCell>
        <mxCell id="sIYAJ0rAMIiGirNf-sVY-67" style="rounded=0;orthogonalLoop=1;jettySize=auto;html=1;entryX=0.5;entryY=0;entryDx=0;entryDy=0;" edge="1" parent="sIYAJ0rAMIiGirNf-sVY-14" source="sIYAJ0rAMIiGirNf-sVY-9" target="sIYAJ0rAMIiGirNf-sVY-10">
          <mxGeometry relative="1" as="geometry" />
        </mxCell>
        <mxCell id="sIYAJ0rAMIiGirNf-sVY-68" style="rounded=0;orthogonalLoop=1;jettySize=auto;html=1;" edge="1" parent="sIYAJ0rAMIiGirNf-sVY-14" source="sIYAJ0rAMIiGirNf-sVY-9" target="sIYAJ0rAMIiGirNf-sVY-13">
          <mxGeometry relative="1" as="geometry" />
        </mxCell>
        <mxCell id="sIYAJ0rAMIiGirNf-sVY-69" style="rounded=0;orthogonalLoop=1;jettySize=auto;html=1;entryX=0.5;entryY=0;entryDx=0;entryDy=0;" edge="1" parent="sIYAJ0rAMIiGirNf-sVY-14" source="sIYAJ0rAMIiGirNf-sVY-9" target="sIYAJ0rAMIiGirNf-sVY-12">
          <mxGeometry relative="1" as="geometry" />
        </mxCell>
        <mxCell id="sIYAJ0rAMIiGirNf-sVY-9" value="Application Instance" style="rounded=0;whiteSpace=wrap;html=1;" vertex="1" parent="sIYAJ0rAMIiGirNf-sVY-14">
          <mxGeometry x="200" y="10" width="85" height="40" as="geometry" />
        </mxCell>
        <mxCell id="sIYAJ0rAMIiGirNf-sVY-10" value="Command Handler" style="rounded=0;whiteSpace=wrap;html=1;" vertex="1" parent="sIYAJ0rAMIiGirNf-sVY-14">
          <mxGeometry x="60" y="80" width="90" height="60" as="geometry" />
        </mxCell>
        <mxCell id="sIYAJ0rAMIiGirNf-sVY-12" value="Error Handler" style="rounded=0;whiteSpace=wrap;html=1;" vertex="1" parent="sIYAJ0rAMIiGirNf-sVY-14">
          <mxGeometry x="330" y="80" width="90" height="60" as="geometry" />
        </mxCell>
        <mxCell id="sIYAJ0rAMIiGirNf-sVY-13" value="Message Handler" style="rounded=0;whiteSpace=wrap;html=1;" vertex="1" parent="sIYAJ0rAMIiGirNf-sVY-14">
          <mxGeometry x="195" y="80" width="90" height="60" as="geometry" />
        </mxCell>
        <mxCell id="sIYAJ0rAMIiGirNf-sVY-53" value="Bot Core" style="text;html=1;align=center;verticalAlign=middle;whiteSpace=wrap;rounded=0;" vertex="1" parent="sIYAJ0rAMIiGirNf-sVY-14">
          <mxGeometry x="39.999999999999986" width="115" height="30" as="geometry" />
        </mxCell>
        <mxCell id="sIYAJ0rAMIiGirNf-sVY-15" value="" style="group;fillColor=#f9f7ed;strokeColor=#36393d;" vertex="1" connectable="0" parent="1">
          <mxGeometry x="210" y="450" width="410" height="150" as="geometry" />
        </mxCell>
        <mxCell id="sIYAJ0rAMIiGirNf-sVY-17" value="URL Extractions" style="rounded=0;whiteSpace=wrap;html=1;" vertex="1" parent="sIYAJ0rAMIiGirNf-sVY-15">
          <mxGeometry x="167.35" y="20" width="71.12" height="40" as="geometry" />
        </mxCell>
        <mxCell id="sIYAJ0rAMIiGirNf-sVY-18" value="News Extractions" style="rounded=0;whiteSpace=wrap;html=1;" vertex="1" parent="sIYAJ0rAMIiGirNf-sVY-15">
          <mxGeometry x="41.84" y="100" width="75.31" height="40" as="geometry" />
        </mxCell>
        <mxCell id="sIYAJ0rAMIiGirNf-sVY-19" value="Text Cleaning" style="rounded=0;whiteSpace=wrap;html=1;" vertex="1" parent="sIYAJ0rAMIiGirNf-sVY-15">
          <mxGeometry x="292.86" y="100" width="75.31" height="40" as="geometry" />
        </mxCell>
        <mxCell id="sIYAJ0rAMIiGirNf-sVY-20" value="URL Preprocessing" style="rounded=0;whiteSpace=wrap;html=1;" vertex="1" parent="sIYAJ0rAMIiGirNf-sVY-15">
          <mxGeometry x="152.63" y="100" width="100.56" height="40" as="geometry" />
        </mxCell>
        <mxCell id="sIYAJ0rAMIiGirNf-sVY-46" value="Preprocessing" style="text;html=1;align=center;verticalAlign=middle;whiteSpace=wrap;rounded=0;" vertex="1" parent="sIYAJ0rAMIiGirNf-sVY-15">
          <mxGeometry x="2.1399999999999864" width="115" height="30" as="geometry" />
        </mxCell>
        <mxCell id="sIYAJ0rAMIiGirNf-sVY-25" value="" style="group" vertex="1" connectable="0" parent="1">
          <mxGeometry x="235" y="630" width="350" height="90" as="geometry" />
        </mxCell>
        <mxCell id="sIYAJ0rAMIiGirNf-sVY-3" value="" style="rounded=0;whiteSpace=wrap;html=1;fillColor=#cdeb8b;strokeColor=#36393d;" vertex="1" parent="sIYAJ0rAMIiGirNf-sVY-25">
          <mxGeometry width="350" height="90" as="geometry" />
        </mxCell>
        <mxCell id="sIYAJ0rAMIiGirNf-sVY-22" value="Fake News Detection" style="rounded=0;whiteSpace=wrap;html=1;" vertex="1" parent="sIYAJ0rAMIiGirNf-sVY-25">
          <mxGeometry x="9.996734693877556" y="20" width="75.3061224489796" height="60" as="geometry" />
        </mxCell>
        <mxCell id="sIYAJ0rAMIiGirNf-sVY-23" value="Malicious Link Detection" style="rounded=0;whiteSpace=wrap;html=1;" vertex="1" parent="sIYAJ0rAMIiGirNf-sVY-25">
          <mxGeometry x="126.71000000000004" y="20" width="96.58" height="60" as="geometry" />
        </mxCell>
        <mxCell id="sIYAJ0rAMIiGirNf-sVY-24" value="Spam Detection" style="rounded=0;whiteSpace=wrap;html=1;" vertex="1" parent="sIYAJ0rAMIiGirNf-sVY-25">
          <mxGeometry x="259.9971428571429" y="20" width="75.3061224489796" height="60" as="geometry" />
        </mxCell>
        <mxCell id="sIYAJ0rAMIiGirNf-sVY-45" value="All Models" style="text;html=1;align=center;verticalAlign=middle;whiteSpace=wrap;rounded=0;" vertex="1" parent="sIYAJ0rAMIiGirNf-sVY-25">
          <mxGeometry x="220" width="62.5" height="20" as="geometry" />
        </mxCell>
        <mxCell id="sIYAJ0rAMIiGirNf-sVY-40" value="" style="group" vertex="1" connectable="0" parent="1">
          <mxGeometry x="190" y="750" width="490" height="310" as="geometry" />
        </mxCell>
        <mxCell id="sIYAJ0rAMIiGirNf-sVY-4" value="" style="rounded=0;whiteSpace=wrap;html=1;fillColor=#cce5ff;strokeColor=#36393d;" vertex="1" parent="sIYAJ0rAMIiGirNf-sVY-40">
          <mxGeometry width="490" height="310" as="geometry" />
        </mxCell>
        <mxCell id="sIYAJ0rAMIiGirNf-sVY-26" value="" style="rounded=0;whiteSpace=wrap;html=1;fillColor=#cce5ff;strokeColor=#36393d;" vertex="1" parent="sIYAJ0rAMIiGirNf-sVY-40">
          <mxGeometry x="10" y="10" width="170" height="280" as="geometry" />
        </mxCell>
        <mxCell id="sIYAJ0rAMIiGirNf-sVY-27" value="" style="rounded=0;whiteSpace=wrap;html=1;fillColor=#cce5ff;strokeColor=#36393d;" vertex="1" parent="sIYAJ0rAMIiGirNf-sVY-40">
          <mxGeometry x="190" y="20" width="160" height="140" as="geometry" />
        </mxCell>
        <mxCell id="sIYAJ0rAMIiGirNf-sVY-28" value="" style="rounded=0;whiteSpace=wrap;html=1;fillColor=#cce5ff;strokeColor=#36393d;" vertex="1" parent="sIYAJ0rAMIiGirNf-sVY-40">
          <mxGeometry x="230" y="170" width="250" height="130" as="geometry" />
        </mxCell>
        <mxCell id="sIYAJ0rAMIiGirNf-sVY-29" value="Link vectoriser" style="rounded=0;whiteSpace=wrap;html=1;" vertex="1" parent="sIYAJ0rAMIiGirNf-sVY-40">
          <mxGeometry x="199.99714285714293" y="90" width="75.3061224489796" height="60" as="geometry" />
        </mxCell>
        <mxCell id="sIYAJ0rAMIiGirNf-sVY-30" value="Link Classification Model" style="rounded=0;whiteSpace=wrap;html=1;" vertex="1" parent="sIYAJ0rAMIiGirNf-sVY-40">
          <mxGeometry x="196.70999999999998" y="30" width="96.58" height="60" as="geometry" />
        </mxCell>
        <mxCell id="sIYAJ0rAMIiGirNf-sVY-31" value="Message Classification Model" style="rounded=0;whiteSpace=wrap;html=1;" vertex="1" parent="sIYAJ0rAMIiGirNf-sVY-40">
          <mxGeometry x="250" y="205" width="96.58" height="60" as="geometry" />
        </mxCell>
        <mxCell id="sIYAJ0rAMIiGirNf-sVY-32" value="Message Vectoriser" style="rounded=0;whiteSpace=wrap;html=1;" vertex="1" parent="sIYAJ0rAMIiGirNf-sVY-40">
          <mxGeometry x="360" y="205" width="96.58" height="60" as="geometry" />
        </mxCell>
        <mxCell id="sIYAJ0rAMIiGirNf-sVY-33" value="Combined News Model" style="rounded=0;whiteSpace=wrap;html=1;" vertex="1" parent="sIYAJ0rAMIiGirNf-sVY-40">
          <mxGeometry x="20" y="20" width="150" height="30" as="geometry" />
        </mxCell>
        <mxCell id="sIYAJ0rAMIiGirNf-sVY-34" value="Text News Model" style="rounded=0;whiteSpace=wrap;html=1;" vertex="1" parent="sIYAJ0rAMIiGirNf-sVY-40">
          <mxGeometry x="20" y="110" width="150" height="30" as="geometry" />
        </mxCell>
        <mxCell id="sIYAJ0rAMIiGirNf-sVY-35" value="Combined Vectoriser" style="rounded=0;whiteSpace=wrap;html=1;" vertex="1" parent="sIYAJ0rAMIiGirNf-sVY-40">
          <mxGeometry x="20" y="160" width="150" height="30" as="geometry" />
        </mxCell>
        <mxCell id="sIYAJ0rAMIiGirNf-sVY-36" value="Title Vectoriser" style="rounded=0;whiteSpace=wrap;html=1;" vertex="1" parent="sIYAJ0rAMIiGirNf-sVY-40">
          <mxGeometry x="20" y="204" width="150" height="30" as="geometry" />
        </mxCell>
        <mxCell id="sIYAJ0rAMIiGirNf-sVY-37" value="Text Vectoriser" style="rounded=0;whiteSpace=wrap;html=1;" vertex="1" parent="sIYAJ0rAMIiGirNf-sVY-40">
          <mxGeometry x="20" y="250" width="150" height="30" as="geometry" />
        </mxCell>
        <mxCell id="sIYAJ0rAMIiGirNf-sVY-39" value="Title_News_model" style="rounded=0;whiteSpace=wrap;html=1;" vertex="1" parent="sIYAJ0rAMIiGirNf-sVY-40">
          <mxGeometry x="20" y="65" width="150" height="30" as="geometry" />
        </mxCell>
        <mxCell id="sIYAJ0rAMIiGirNf-sVY-43" value="Spam Detection" style="text;html=1;align=center;verticalAlign=middle;whiteSpace=wrap;rounded=0;" vertex="1" parent="sIYAJ0rAMIiGirNf-sVY-40">
          <mxGeometry x="297.5" y="170" width="115" height="30" as="geometry" />
        </mxCell>
        <mxCell id="sIYAJ0rAMIiGirNf-sVY-44" value="Malicious Link Detection" style="text;html=1;align=center;verticalAlign=middle;whiteSpace=wrap;rounded=0;" vertex="1" parent="sIYAJ0rAMIiGirNf-sVY-40">
          <mxGeometry x="280" y="120" width="70" height="30" as="geometry" />
        </mxCell>
        <mxCell id="sIYAJ0rAMIiGirNf-sVY-42" value="Fake News model" style="text;html=1;align=center;verticalAlign=middle;whiteSpace=wrap;rounded=0;" vertex="1" parent="sIYAJ0rAMIiGirNf-sVY-40">
          <mxGeometry x="37.5" y="283" width="115" height="30" as="geometry" />
        </mxCell>
        <mxCell id="sIYAJ0rAMIiGirNf-sVY-55" value="" style="rounded=0;whiteSpace=wrap;html=1;fillColor=#eeeeee;strokeColor=#36393d;" vertex="1" parent="1">
          <mxGeometry x="20" y="10" width="120" height="70" as="geometry" />
        </mxCell>
        <mxCell id="sIYAJ0rAMIiGirNf-sVY-63" style="edgeStyle=orthogonalEdgeStyle;rounded=0;orthogonalLoop=1;jettySize=auto;html=1;entryX=1.006;entryY=0.308;entryDx=0;entryDy=0;entryPerimeter=0;" edge="1" parent="1" source="sIYAJ0rAMIiGirNf-sVY-56" target="sIYAJ0rAMIiGirNf-sVY-54">
          <mxGeometry relative="1" as="geometry">
            <Array as="points">
              <mxPoint x="160" y="55" />
              <mxPoint x="160" y="179" />
            </Array>
          </mxGeometry>
        </mxCell>
        <mxCell id="sIYAJ0rAMIiGirNf-sVY-56" value="Telegram User" style="rounded=0;whiteSpace=wrap;html=1;" vertex="1" parent="1">
          <mxGeometry x="30" y="40" width="100" height="30" as="geometry" />
        </mxCell>
        <mxCell id="sIYAJ0rAMIiGirNf-sVY-59" value="Client Side" style="text;html=1;align=center;verticalAlign=middle;whiteSpace=wrap;rounded=0;" vertex="1" parent="1">
          <mxGeometry x="20" y="10" width="115" height="30" as="geometry" />
        </mxCell>
        <mxCell id="sIYAJ0rAMIiGirNf-sVY-62" value="" style="group" vertex="1" connectable="0" parent="1">
          <mxGeometry x="20" y="150" width="120" height="80" as="geometry" />
        </mxCell>
        <mxCell id="sIYAJ0rAMIiGirNf-sVY-54" value="" style="rounded=0;whiteSpace=wrap;html=1;fillColor=#eeeeee;strokeColor=#36393d;" vertex="1" parent="sIYAJ0rAMIiGirNf-sVY-62">
          <mxGeometry y="5.77319587628866" width="120" height="74.22680412371133" as="geometry" />
        </mxCell>
        <mxCell id="sIYAJ0rAMIiGirNf-sVY-57" value="Telegram" style="rounded=0;whiteSpace=wrap;html=1;" vertex="1" parent="sIYAJ0rAMIiGirNf-sVY-62">
          <mxGeometry x="10" y="22.2680412371134" width="100" height="41.23711340206185" as="geometry" />
        </mxCell>
        <mxCell id="sIYAJ0rAMIiGirNf-sVY-58" value="Telegram API" style="text;html=1;align=center;verticalAlign=middle;whiteSpace=wrap;rounded=0;" vertex="1" parent="sIYAJ0rAMIiGirNf-sVY-62">
          <mxGeometry width="115" height="24.74226804123711" as="geometry" />
        </mxCell>
        <mxCell id="sIYAJ0rAMIiGirNf-sVY-65" style="rounded=0;orthogonalLoop=1;jettySize=auto;html=1;entryX=0.5;entryY=0;entryDx=0;entryDy=0;" edge="1" parent="1" source="sIYAJ0rAMIiGirNf-sVY-6" target="sIYAJ0rAMIiGirNf-sVY-9">
          <mxGeometry relative="1" as="geometry" />
        </mxCell>
        <mxCell id="sIYAJ0rAMIiGirNf-sVY-66" style="rounded=0;orthogonalLoop=1;jettySize=auto;html=1;entryX=0;entryY=0.5;entryDx=0;entryDy=0;" edge="1" parent="1" source="sIYAJ0rAMIiGirNf-sVY-57" target="sIYAJ0rAMIiGirNf-sVY-9">
          <mxGeometry relative="1" as="geometry" />
        </mxCell>
        <mxCell id="sIYAJ0rAMIiGirNf-sVY-70" value="help" style="rounded=0;whiteSpace=wrap;html=1;" vertex="1" parent="1">
          <mxGeometry x="270" y="370" width="120" height="60" as="geometry" />
        </mxCell>
        <mxCell id="sIYAJ0rAMIiGirNf-sVY-80" style="edgeStyle=orthogonalEdgeStyle;rounded=0;orthogonalLoop=1;jettySize=auto;html=1;entryX=0.5;entryY=0;entryDx=0;entryDy=0;" edge="1" parent="1" source="sIYAJ0rAMIiGirNf-sVY-71" target="sIYAJ0rAMIiGirNf-sVY-18">
          <mxGeometry relative="1" as="geometry">
            <Array as="points">
              <mxPoint x="470" y="440" />
              <mxPoint x="290" y="440" />
            </Array>
          </mxGeometry>
        </mxCell>
        <mxCell id="sIYAJ0rAMIiGirNf-sVY-71" value="analyse news" style="rounded=0;whiteSpace=wrap;html=1;" vertex="1" parent="1">
          <mxGeometry x="410" y="370" width="120" height="60" as="geometry" />
        </mxCell>
        <mxCell id="sIYAJ0rAMIiGirNf-sVY-79" style="rounded=0;orthogonalLoop=1;jettySize=auto;html=1;entryX=0.5;entryY=0;entryDx=0;entryDy=0;" edge="1" parent="1" source="sIYAJ0rAMIiGirNf-sVY-72" target="sIYAJ0rAMIiGirNf-sVY-19">
          <mxGeometry relative="1" as="geometry" />
        </mxCell>
        <mxCell id="sIYAJ0rAMIiGirNf-sVY-72" value="analyse message" style="rounded=0;whiteSpace=wrap;html=1;" vertex="1" parent="1">
          <mxGeometry x="550" y="370" width="120" height="60" as="geometry" />
        </mxCell>
        <mxCell id="sIYAJ0rAMIiGirNf-sVY-78" style="rounded=0;orthogonalLoop=1;jettySize=auto;html=1;entryX=0.5;entryY=0;entryDx=0;entryDy=0;exitX=0.5;exitY=1;exitDx=0;exitDy=0;" edge="1" parent="1" source="sIYAJ0rAMIiGirNf-sVY-73" target="sIYAJ0rAMIiGirNf-sVY-17">
          <mxGeometry relative="1" as="geometry" />
        </mxCell>
        <mxCell id="sIYAJ0rAMIiGirNf-sVY-73" value="Start" style="rounded=0;whiteSpace=wrap;html=1;" vertex="1" parent="1">
          <mxGeometry x="130" y="370" width="120" height="60" as="geometry" />
        </mxCell>
        <mxCell id="sIYAJ0rAMIiGirNf-sVY-74" style="rounded=0;orthogonalLoop=1;jettySize=auto;html=1;entryX=0.5;entryY=0;entryDx=0;entryDy=0;" edge="1" parent="1" source="sIYAJ0rAMIiGirNf-sVY-13" target="sIYAJ0rAMIiGirNf-sVY-72">
          <mxGeometry relative="1" as="geometry" />
        </mxCell>
        <mxCell id="sIYAJ0rAMIiGirNf-sVY-75" style="rounded=0;orthogonalLoop=1;jettySize=auto;html=1;entryX=0.5;entryY=0;entryDx=0;entryDy=0;" edge="1" parent="1" source="sIYAJ0rAMIiGirNf-sVY-10" target="sIYAJ0rAMIiGirNf-sVY-73">
          <mxGeometry relative="1" as="geometry" />
        </mxCell>
        <mxCell id="sIYAJ0rAMIiGirNf-sVY-76" style="rounded=0;orthogonalLoop=1;jettySize=auto;html=1;" edge="1" parent="1" source="sIYAJ0rAMIiGirNf-sVY-10" target="sIYAJ0rAMIiGirNf-sVY-70">
          <mxGeometry relative="1" as="geometry" />
        </mxCell>
        <mxCell id="sIYAJ0rAMIiGirNf-sVY-77" style="rounded=0;orthogonalLoop=1;jettySize=auto;html=1;" edge="1" parent="1" source="sIYAJ0rAMIiGirNf-sVY-10" target="sIYAJ0rAMIiGirNf-sVY-71">
          <mxGeometry relative="1" as="geometry" />
        </mxCell>
        <mxCell id="sIYAJ0rAMIiGirNf-sVY-82" style="rounded=0;orthogonalLoop=1;jettySize=auto;html=1;" edge="1" parent="1" source="sIYAJ0rAMIiGirNf-sVY-18" target="sIYAJ0rAMIiGirNf-sVY-22">
          <mxGeometry relative="1" as="geometry" />
        </mxCell>
        <mxCell id="sIYAJ0rAMIiGirNf-sVY-83" style="rounded=0;orthogonalLoop=1;jettySize=auto;html=1;entryX=0.5;entryY=0;entryDx=0;entryDy=0;" edge="1" parent="1" source="sIYAJ0rAMIiGirNf-sVY-20" target="sIYAJ0rAMIiGirNf-sVY-23">
          <mxGeometry relative="1" as="geometry" />
        </mxCell>
        <mxCell id="sIYAJ0rAMIiGirNf-sVY-84" style="edgeStyle=orthogonalEdgeStyle;rounded=0;orthogonalLoop=1;jettySize=auto;html=1;entryX=0.6;entryY=0.015;entryDx=0;entryDy=0;entryPerimeter=0;" edge="1" parent="1" source="sIYAJ0rAMIiGirNf-sVY-19" target="sIYAJ0rAMIiGirNf-sVY-24">
          <mxGeometry relative="1" as="geometry" />
        </mxCell>
        <mxCell id="sIYAJ0rAMIiGirNf-sVY-86" style="rounded=0;orthogonalLoop=1;jettySize=auto;html=1;entryX=0.5;entryY=0;entryDx=0;entryDy=0;" edge="1" parent="1" source="sIYAJ0rAMIiGirNf-sVY-23" target="sIYAJ0rAMIiGirNf-sVY-27">
          <mxGeometry relative="1" as="geometry" />
        </mxCell>
        <mxCell id="sIYAJ0rAMIiGirNf-sVY-87" style="rounded=0;orthogonalLoop=1;jettySize=auto;html=1;entryX=1;entryY=0;entryDx=0;entryDy=0;" edge="1" parent="1" source="sIYAJ0rAMIiGirNf-sVY-24" target="sIYAJ0rAMIiGirNf-sVY-43">
          <mxGeometry relative="1" as="geometry" />
        </mxCell>
        <mxCell id="sIYAJ0rAMIiGirNf-sVY-88" style="rounded=0;orthogonalLoop=1;jettySize=auto;html=1;entryX=0.452;entryY=0.017;entryDx=0;entryDy=0;entryPerimeter=0;" edge="1" parent="1" source="sIYAJ0rAMIiGirNf-sVY-22" target="sIYAJ0rAMIiGirNf-sVY-26">
          <mxGeometry relative="1" as="geometry" />
        </mxCell>
      </root>
    </mxGraphModel>
  </diagram>
</mxfile>
